<svg width="82" height="105" viewBox="0 0 82 105" fill="none" xmlns="http://www.w3.org/2000/svg"><path d="M31.32 75.176h18.942V56.392H31.32v18.784z" fill="#934AF4"/><path d="M69.205 0H12.338v18.784H31.32v18.784h18.903V18.784h18.982V0z" fill="#E5176B"/><path d="M50.223 0v18.784H12.338V0h37.885z" fill="#934AF4"/><path d="M17.48 104.795c-3.244 0-5.26-2.293-5.26-5.496 0-3.204 1.977-5.497 5.26-5.497 3.282 0 5.259 2.293 5.259 5.497 0 3.203-2.017 5.496-5.26 5.496zm0-9.214c-1.978 0-3.085 1.543-3.085 3.678 0 2.175 1.068 3.678 3.084 3.678 2.017 0 3.085-1.543 3.085-3.678s-1.107-3.678-3.085-3.678zm15.026 4.746H29.54l-.158.158v3.994l-.158.158h-1.859l-.158-.158v-10.4l.158-.159h5.141c2.175 0 3.717 1.068 3.717 3.204.08 2.175-1.542 3.203-3.717 3.203zm0-4.587H29.54l-.158.158v2.452l.158.158h2.966c.91 0 1.542-.277 1.542-1.384 0-1.147-.593-1.384-1.542-1.384zm22.502-1.82h-1.859l-.158.159v3.836l-.198.197h-4.39v2.096h4.39l.198.158v4.113l.158.158h1.859l.158-.158v-10.4l-.158-.159zm14.434 10.678h-1.384l-.158-.159-.791-1.977-.277-.158h-3.875l-.277.158-.791 1.977-.158.159h-1.384l-.159-.159v-1.542l3.52-8.858.158-.158h1.978l.158.158 3.52 8.858v1.542l-.08.159zm-4.508-7.949h-.158l-1.424 3.678.158.158h2.61l.158-.158-1.344-3.678zm16.411-.909H78.26l-.158.197v8.542l-.198.158h-1.858l-.158-.158v-8.542l-.159-.197h-3.084l-.158-.159V94.04l.158-.158h8.66l.159.158v1.542l-.119.159zm-72.487 0H5.774l-.159.197v8.542l-.158.158H3.56l-.158-.158v-8.542l-.158-.197H.158L0 95.58v-1.54l.158-.158h8.66l.159.158v1.542l-.119.159zm39.585-1.701v4.034h-2.017l-.158-.198v-3.836l.158-.158h1.898l.12.158z" fill="#fff"/><path d="M48.443 100.208v4.271l-.158.158h-1.898l-.159-.158v-4.113l.159-.158h2.056z" fill="#fff"/></svg>